<svg width="81" height="80" viewBox="0 0 81 80" fill="none" xmlns="http://www.w3.org/2000/svg">
<g id="022-star">
<g id="Group">
<path id="Vector" d="M44.3009 30.633L40.3335 22.594L36.3661 30.633L27.4946 31.9221L33.9142 38.1794L32.3988 47.015L40.3337 42.8434L48.2686 47.015L46.7532 38.1794L53.1727 31.9221L44.3009 30.633ZM42.0425 38.4458L40.3335 37.5474L38.6245 38.4458L38.9509 36.5429L37.5684 35.1952L39.4791 34.9175L40.3335 33.1862L41.1879 34.9175L43.0986 35.1952L41.7161 36.5429L42.0425 38.4458Z" fill="#525252"/>
<path id="Vector_2" d="M12.7693 42.8408L9.67164 52.4701L20.3267 55.8537L22.6511 65.5157L28.6138 63.9474V79.9998L40.3331 71.2104L52.0524 79.9998V64.0319L57.5686 65.72L60.8634 55.3562L70.5686 53.2933L67.9692 42.5757L75.5093 35.7654L67.8969 27.7799L70.9947 18.1501L60.3793 14.7816L58.3192 5.07477L47.5708 7.68098L40.3762 0L32.7554 7.7313L23.1727 4.64865L19.8041 15.2645L10.0974 17.3271L12.6968 28.0448L5.15674 34.8551L12.7693 42.8408ZM40.3331 51.7174C31.2862 51.7174 23.9261 44.3572 23.9261 35.3104C23.9261 26.2636 31.2862 18.9034 40.3331 18.9034C49.3799 18.9034 56.7401 26.2636 56.7401 35.3104C56.7401 44.3572 49.3799 51.7174 40.3331 51.7174ZM40.3331 65.3509L33.3015 70.6246V55.1985C35.5019 55.9789 37.8684 56.4051 40.3331 56.4051C42.7977 56.4051 45.1642 55.9789 47.3647 55.1985V70.6246L40.3331 65.3509ZM15.79 20.9099L23.4471 19.2828L26.2174 10.5525L34.0673 13.0778L40.2898 6.76516L46.0183 12.8809L54.735 10.7674L56.3601 18.4243L65.0908 21.1947L62.5808 28.9973L68.7935 35.5145L62.7555 40.9682L64.8759 49.7111L57.222 51.338L54.5061 59.8808L52.0522 59.13V52.8415C57.7015 49.0528 61.4277 42.6087 61.4277 35.3104C61.4277 23.6788 51.9646 14.2157 40.3329 14.2157C28.7013 14.2157 19.2382 23.6788 19.2382 35.3104C19.2382 42.6089 22.9643 49.0528 28.6136 52.8415V59.1003L26.0888 59.7644L24.2658 52.1862L15.5749 49.4264L18.085 41.6232L11.8724 35.106L17.9103 29.6523L15.79 20.9099Z" fill="#525252"/>
</g>
</g>
</svg>
