<svg width="81" height="80" viewBox="0 0 81 80" fill="none" xmlns="http://www.w3.org/2000/svg">
<g id="033-business" clip-path="url(#clip0_152_201)">
<g id="Group">
<path id="Vector" d="M66.8946 32.2062L71.8604 37.6571H59.08V28.2854H49.7084V22.2105C48.5222 21.5705 45.8196 19.9845 42.6796 19.2299V8.48341L48.1502 13.4616L51.3039 9.996L40.3553 0.0328369L29.4067 9.996L32.5604 13.4616L37.9935 8.51746V19.2297C35.0905 19.9274 32.6015 21.3273 30.9647 22.2104V28.2852H21.5931V37.6569H8.82859L13.8127 32.2098L10.3557 29.0465L0.333496 40L10.3557 50.9532L13.8127 47.79L8.82859 42.3429H21.5932V56.4004H38.0124V71.4995L32.5606 66.5383L29.4069 70.0039L40.3554 79.9671L51.304 70.0039L48.1503 66.5383L42.6798 71.4995V56.4004H59.0802V42.3429H71.8606L66.8947 47.7937L70.3588 50.9493L80.3337 39.9998L70.3585 29.0506L66.8946 32.2062ZM35.6507 25.0453C37.1667 24.341 39.1454 23.5996 40.3365 23.5996C41.5278 23.5996 43.507 24.3412 45.0224 25.0451V28.2854H35.6507V25.0453ZM54.394 32.9712V37.6571H26.2791V32.9712H54.394ZM26.2791 51.7145V42.3429H37.9936V47.0287H42.6795V42.3429H54.394V51.7145H26.2791Z" fill="white"/>
</g>
</g>
<defs>
<clipPath id="clip0_152_201">
<rect width="80" height="80" fill="white" transform="translate(0.333496)"/>
</clipPath>
</defs>
</svg>
