<svg width="80" height="80" viewBox="0 0 80 80" fill="none" xmlns="http://www.w3.org/2000/svg">
<rect width="80" height="80" fill="#181818"/>
<g id="Shot 3">
<path d="M-493 -3020C-493 -3021.1 -492.105 -3022 -491 -3022H2260C2261.1 -3022 2262 -3021.1 2262 -3020V3591C2262 3592.1 2261.1 3593 2260 3593H-491C-492.105 3593 -493 3592.1 -493 3591V-3020Z" fill="#404040"/>
<path d="M-491 -3021H2260V-3023H-491V-3021ZM2261 -3020V3591H2263V-3020H2261ZM2260 3592H-491V3594H2260V3592ZM-492 3591V-3020H-494V3591H-492ZM-491 3592C-491.552 3592 -492 3591.55 -492 3591H-494C-494 3592.66 -492.657 3594 -491 3594V3592ZM2261 3591C2261 3591.55 2260.55 3592 2260 3592V3594C2261.66 3594 2263 3592.66 2263 3591H2261ZM2260 -3021C2260.55 -3021 2261 -3020.55 2261 -3020H2263C2263 -3021.66 2261.66 -3023 2260 -3023V-3021ZM-491 -3023C-492.657 -3023 -494 -3021.66 -494 -3020H-492C-492 -3020.55 -491.552 -3021 -491 -3021V-3023Z" fill="black" fill-opacity="0.1"/>
<g id="Landing Page" clip-path="url(#clip0_7_3)">
<rect width="1440" height="6519.2" transform="translate(-126 -2974)" fill="white"/>
<g id="Services">
<g id="Wrapper">
<g id="Wrapper_2">
<g id="Row" filter="url(#filter0_d_7_3)">
<g id="Feature">
<g id="033-business" clip-path="url(#clip1_7_3)">
<g id="Group">
<path id="Vector" d="M66.5611 32.2061L71.5269 37.6569H58.7465V28.2853H49.3749V22.2104C48.1887 21.5703 45.4861 19.9843 42.3461 19.2298V8.48329L47.8167 13.4615L50.9704 9.99587L40.0218 0.0327148L29.0732 9.99587L32.2269 13.4615L37.66 8.51734V19.2296C34.757 19.9273 32.268 21.3271 30.6312 22.2103V28.2851H21.2596V37.6568H8.49509L13.4792 32.2097L10.0222 29.0464L0 39.9998L10.0222 50.9531L13.4792 47.7899L8.49509 42.3428H21.2597V56.4002H37.6789V71.4994L32.2271 66.5382L29.0734 70.0038L40.0219 79.967L50.9705 70.0038L47.8168 66.5382L42.3463 71.4994V56.4002H58.7467V42.3428H71.5271L66.5612 47.7936L70.0253 50.9492L80.0002 39.9997L70.025 29.0505L66.5611 32.2061ZM35.3172 25.0452C36.8332 24.3409 38.8119 23.5995 40.0031 23.5995C41.1943 23.5995 43.1735 24.3411 44.6889 25.045V28.2853H35.3172V25.0452ZM54.0605 32.9711V37.6569H25.9456V32.9711H54.0605ZM25.9456 51.7144V42.3428H37.6601V47.0286H42.346V42.3428H54.0605V51.7144H25.9456Z" fill="#525252"/>
</g>
</g>
</g>
</g>
</g>
</g>
</g>
</g>
</g>
<defs>
<filter id="filter0_d_7_3" x="-70" y="-66" width="1328" height="374" filterUnits="userSpaceOnUse" color-interpolation-filters="sRGB">
<feFlood flood-opacity="0" result="BackgroundImageFix"/>
<feColorMatrix in="SourceAlpha" type="matrix" values="0 0 0 0 0 0 0 0 0 0 0 0 0 0 0 0 0 0 127 0" result="hardAlpha"/>
<feOffset dy="4"/>
<feGaussianBlur stdDeviation="12"/>
<feComposite in2="hardAlpha" operator="out"/>
<feColorMatrix type="matrix" values="0 0 0 0 0 0 0 0 0 0 0 0 0 0 0 0 0 0 0.1 0"/>
<feBlend mode="normal" in2="BackgroundImageFix" result="effect1_dropShadow_7_3"/>
<feBlend mode="normal" in="SourceGraphic" in2="effect1_dropShadow_7_3" result="shape"/>
</filter>
<clipPath id="clip0_7_3">
<rect width="1440" height="6519.2" fill="white" transform="translate(-126 -2974)"/>
</clipPath>
<clipPath id="clip1_7_3">
<rect width="80" height="80" fill="white"/>
</clipPath>
</defs>
</svg>
