<svg width="14" height="14" viewBox="0 0 14 14" fill="none" xmlns="http://www.w3.org/2000/svg">
<g id="Twitter" clip-path="url(#clip0_185_1259)">
<path id="Vector" d="M12.2829 4.18867C12.2883 4.31188 12.2883 4.42948 12.2883 4.55268C12.2937 8.28789 9.54941 12.5999 4.53084 12.5999C3.05067 12.5999 1.5975 12.1575 0.349609 11.3287C0.565694 11.3567 0.781778 11.3679 0.997863 11.3679C2.22414 11.3679 3.41801 10.9423 4.38499 10.1527C3.21813 10.1303 2.19173 9.34069 1.83519 8.18709C2.24575 8.27109 2.66711 8.25429 3.06687 8.13669C1.79738 7.87909 0.884418 6.71988 0.879016 5.37028C0.879016 5.35908 0.879016 5.34788 0.879016 5.33668C1.25716 5.55508 1.68393 5.67828 2.1161 5.68948C0.922233 4.86068 0.549488 3.20867 1.27337 1.91507C2.66171 3.68467 4.70371 4.75428 6.89697 4.87188C6.67548 3.89187 6.978 2.86147 7.68568 2.16707C8.7823 1.09747 10.511 1.15347 11.5482 2.29027C12.1586 2.16707 12.7475 1.93187 13.2823 1.60147C13.077 2.25667 12.6502 2.81107 12.083 3.16387C12.6232 3.09667 13.1526 2.94547 13.6496 2.72147C13.2823 3.29267 12.8177 3.78547 12.2829 4.18867Z" fill="#525252"/>
</g>
<defs>
<clipPath id="clip0_185_1259">
<rect width="14" height="14" fill="white"/>
</clipPath>
</defs>
</svg>
