<svg width="14" height="14" viewBox="0 0 14 14" fill="none" xmlns="http://www.w3.org/2000/svg">
<g id="YouTube" clip-path="url(#clip0_185_1269)">
<g id="Group">
<path id="Vector" d="M13.7116 3.63386C13.5502 3.0342 13.0774 2.56138 12.4777 2.39993C11.3822 2.1001 6.99997 2.1001 6.99997 2.1001C6.99997 2.1001 2.61778 2.1001 1.52223 2.3884C0.934098 2.54985 0.449751 3.0342 0.288302 3.63386C0 4.72941 0 7.00123 0 7.00123C0 7.00123 0 9.28458 0.288302 10.3686C0.449751 10.9683 0.922566 11.4411 1.52223 11.6025C2.62931 11.9024 6.99997 11.9024 6.99997 11.9024C6.99997 11.9024 11.3822 11.9024 12.4777 11.6141C13.0774 11.4526 13.5502 10.9798 13.7116 10.3801C13.9999 9.28458 13.9999 7.01276 13.9999 7.01276C13.9999 7.01276 14.0115 4.72941 13.7116 3.63386Z" fill="#525252"/>
<path id="Vector_2" d="M5.60449 9.10002L9.24863 7.00118L5.60449 4.90234V9.10002Z" fill="white"/>
</g>
</g>
<defs>
<clipPath id="clip0_185_1269">
<rect width="14" height="14" fill="white"/>
</clipPath>
</defs>
</svg>
